<svg width="500" height="500" viewBox="0 0 500 500" fill="none" xmlns="http://www.w3.org/2000/svg">
<rect width="500" height="500" fill="white"/>
<path d="M242.494 360.579C313.57 360.579 368.506 306.569 368.506 239.949C368.506 177.532 316.896 139.421 282.712 139.421C235.093 139.421 196.929 173.046 191.514 222.954C190.516 232.161 183.215 239.882 173.954 239.813C158.619 239.703 136.36 239.574 122.245 239.622C116.145 239.641 111.098 234.691 111.399 228.596C113.524 185.327 127.906 144.866 155.334 113.788C185.805 79.2651 230.177 59 282.712 59C370.975 59 454.299 139.664 454.299 239.949C454.299 350.986 362.829 441 244.373 441C159.894 441 74.8105 385.472 45.1028 307.837C44.9971 307.549 44.9723 307.238 45.0312 306.937C45.4252 304.64 46.2106 302.542 46.9842 300.474C48.1087 297.471 49.207 294.534 49.047 291.149L48.5337 280.336C48.4112 277.724 49.0676 275.136 50.4194 272.899C51.7712 270.661 53.7575 268.876 56.1259 267.77L60.4187 265.76C62.8297 264.633 64.9358 262.944 66.5607 260.836C68.1856 258.728 69.2821 256.262 69.7586 253.643C70.4615 249.796 72.4926 246.318 75.4975 243.815C78.5025 241.313 82.2906 239.944 86.2013 239.949C98.8121 239.949 109.778 248.341 113.872 260.271C133.705 318.077 165.23 360.579 242.494 360.579V360.579Z" fill="#FB6970"/>
</svg>
